<?xml version="1.0" encoding="UTF-8"?>
<svg version="1.1" xmlns="http://www.w3.org/2000/svg" width="512" height="512">
<path d="M0 0 C3.48209317 0.00478262 6.96413382 -0.00782269 10.44620943 -0.01801741 C17.24734619 -0.03511307 24.04839018 -0.03606464 30.84954283 -0.03080451 C36.38484915 -0.02674369 41.92012832 -0.02822891 47.45543337 -0.03355277 C48.24679511 -0.03430119 49.03815685 -0.03504961 49.85349925 -0.03582071 C51.46177608 -0.03735238 53.07005291 -0.03889073 54.67832974 -0.04043568 C69.72213716 -0.05412771 84.76589241 -0.04874665 99.80969861 -0.03725047 C113.53012424 -0.02732494 127.25041487 -0.04025286 140.97081968 -0.06418466 C155.10563188 -0.08865088 169.24038141 -0.09816492 183.37521434 -0.09153193 C191.29210524 -0.08805592 199.2088925 -0.09016367 207.12576723 -0.10778296 C213.86618255 -0.12259964 220.60642124 -0.12301839 227.34683344 -0.10571205 C230.77628414 -0.09727601 234.20542062 -0.09486733 237.63485384 -0.1103636 C256.2259315 -0.17678101 274.3338109 0.71495553 291.83774996 7.59433305 C292.60812593 7.88912553 293.37850191 8.18391801 294.17222261 8.4876436 C325.37503496 20.86426764 350.65048267 45.68840576 364.20884371 76.31210649 C365.74160768 79.96519395 367.11248745 83.66083623 368.40024996 87.40683305 C368.63075045 88.06925004 368.86125093 88.73166704 369.09873629 89.41415727 C374.33453998 105.60034731 374.53369363 121.45944698 374.49458301 138.31908309 C374.48980039 141.80117627 374.5024057 145.28321691 374.51260042 148.76529253 C374.52969608 155.56642928 374.53064765 162.36747328 374.52538752 169.16862592 C374.5213267 174.70393225 374.52281192 180.23921141 374.52813578 185.77451646 C374.5288842 186.5658782 374.52963262 187.35723994 374.53040372 188.17258234 C374.53193539 189.78085918 374.53347374 191.38913601 374.53501869 192.99741283 C374.54871072 208.04122025 374.54332966 223.08497551 374.53183348 238.12878171 C374.52190795 251.84920733 374.53483587 265.56949796 374.55876767 279.28990278 C374.58323389 293.42471498 374.59274793 307.55946451 374.58611494 321.69429743 C374.58263893 329.61118834 374.58474668 337.52797559 374.60236597 345.44485033 C374.61718265 352.18526564 374.6176014 358.92550433 374.60029506 365.66591653 C374.59185902 369.09536723 374.58945034 372.52450372 374.60494661 375.95393693 C374.67136403 394.5450146 373.77962748 412.652894 366.90024996 430.15683305 C366.60545748 430.92720903 366.310665 431.69758501 366.00693941 432.49130571 C353.63031537 463.69411805 328.80617725 488.96956577 298.18247652 502.5279268 C294.52938906 504.06069077 290.83374678 505.43157055 287.08774996 506.71933305 C286.42533297 506.94983354 285.76291597 507.18033403 285.08042574 507.41781938 C268.8942357 512.65362307 253.03513603 512.85277673 236.17549992 512.81366611 C232.69340674 512.80888349 229.2113661 512.82148879 225.72929049 512.83168352 C218.92815373 512.84877918 212.12710973 512.84973074 205.32595709 512.84447061 C199.79065076 512.84040979 194.2553716 512.84189502 188.72006655 512.84721887 C187.92870481 512.84796729 187.13734307 512.84871572 186.32200067 512.84948682 C184.71372383 512.85101849 183.105447 512.85255683 181.49717018 512.85410178 C166.45336276 512.86779381 151.4096075 512.86241275 136.3658013 512.85091657 C122.64537568 512.84099105 108.92508505 512.85391896 95.20468023 512.87785076 C81.06986803 512.90231699 66.9351185 512.91183102 52.80028558 512.90519804 C44.88339467 512.90172203 36.96660742 512.90382978 29.04973269 512.92144907 C22.30931737 512.93626574 15.56907868 512.93668449 8.82866648 512.91937815 C5.39921578 512.91094212 1.9700793 512.90853343 -1.45935392 512.92402971 C-20.05043159 512.99044712 -38.15831099 512.09871058 -55.66225004 505.21933305 C-56.43262602 504.92454057 -57.203002 504.62974809 -57.9967227 504.32602251 C-89.19953504 491.94939846 -114.47498276 467.12526035 -128.03334379 436.50155962 C-129.56610776 432.84847216 -130.93698754 429.15282987 -132.22475004 425.40683305 C-132.57050077 424.41320756 -132.57050077 424.41320756 -132.92323637 423.39950883 C-138.15904006 407.2133188 -138.35819372 391.35421913 -138.31908309 374.49458301 C-138.31430048 371.01248984 -138.32690578 367.53044919 -138.33710051 364.04837358 C-138.35419617 357.24723682 -138.35514773 350.44619283 -138.3498876 343.64504018 C-138.34582678 338.10973386 -138.347312 332.5744547 -138.35263586 327.03914964 C-138.35338428 326.2477879 -138.3541327 325.45642616 -138.35490381 324.64108376 C-138.35643548 323.03280693 -138.35797382 321.4245301 -138.35951877 319.81625327 C-138.3732108 304.77244585 -138.36782974 289.7286906 -138.35633356 274.6848844 C-138.34640804 260.96445877 -138.35933595 247.24416814 -138.38326775 233.52376333 C-138.40773398 219.38895113 -138.41724801 205.2542016 -138.41061503 191.11936867 C-138.40713902 183.20247777 -138.40924677 175.28569051 -138.42686605 167.36881578 C-138.44168273 160.62840046 -138.44210148 153.88816178 -138.42479514 147.14774957 C-138.41635911 143.71829887 -138.41395042 140.28916239 -138.4294467 136.85972917 C-138.49586411 118.26865151 -137.60412757 100.16077211 -130.72475004 82.65683305 C-130.42995756 81.88645708 -130.13516508 81.1160811 -129.8314395 80.3223604 C-117.45481545 49.11954805 -92.63067734 23.84410034 -62.0069766 10.2857393 C-58.35388915 8.75297533 -54.65824686 7.38209556 -50.91225004 6.09433305 C-49.91862455 5.74858232 -49.91862455 5.74858232 -48.90492582 5.39584672 C-32.71873579 0.16004303 -16.85963612 -0.03911062 0 0 Z " fill="#0E2034" transform="translate(137.91225004196167,-0.40683305263519287)"/>
<path d="M0 0 C8.14368884 3.71079418 14.80441858 9.34073014 21.546875 15.13671875 C25.8418831 18.76404832 30.35652326 22.09588067 34.875 25.4375 C36.08857178 26.34266357 36.08857178 26.34266357 37.32666016 27.26611328 C41.42904024 30.28224373 45.4106637 32.76287839 50 35 C50.33 35.66 50.66 36.32 51 37 C56.80220028 34.86979553 60.75546819 32.00456856 65.3125 27.875 C66.29198608 27.00657471 66.29198608 27.00657471 67.29125977 26.12060547 C69.20231283 24.42257162 71.10242838 22.71307117 73 21 C73.96164062 20.13890625 74.92328125 19.2778125 75.9140625 18.390625 C77.53578847 16.93458621 79.15453807 15.47522178 80.76953125 14.01171875 C84.14461793 10.96763882 87.56890042 7.98064796 91 5 C94.91732201 6.65188277 97.89071803 9.30438789 101.0625 12.0625 C102.23377534 13.06710582 103.40565891 14.0710029 104.578125 15.07421875 C105.15884766 15.57228027 105.73957031 16.0703418 106.33789062 16.58349609 C110.4978989 20.12879104 114.75853515 23.55312482 119 27 C120.32049434 28.07920463 121.64079353 29.15864807 122.9609375 30.23828125 C124.3697102 31.38812065 125.77856416 32.53786051 127.1875 33.6875 C127.84081299 34.2222998 128.49412598 34.75709961 129.16723633 35.30810547 C133.20448779 38.59628634 137.31208649 41.75069611 141.5246582 44.81176758 C142.011521 45.20388428 142.49838379 45.59600098 143 46 C143 46.33 143 46.66 143 47 C142.10732422 47.13986328 141.21464844 47.27972656 140.29492188 47.42382812 C103.08535406 53.33101321 67.35944678 62.5045466 31.875 75.3125 C30.72410889 75.72097168 29.57321777 76.12944336 28.38745117 76.55029297 C27.32888916 76.9423291 26.27032715 77.33436523 25.1796875 77.73828125 C24.24882324 78.07899658 23.31795898 78.41971191 22.35888672 78.77075195 C19.72303086 80.1443324 18.57462109 81.51191566 17 84 C25.83417374 82.00726774 34.61409637 79.85499633 43.375 77.5625 C44.55602295 77.25465576 45.7370459 76.94681152 46.95385742 76.62963867 C50.30320883 75.75550425 53.6517819 74.87846405 57 74 C57.81452637 73.78666016 58.62905273 73.57332031 59.46826172 73.35351562 C65.83763945 71.68237855 72.18163649 69.95250719 78.5 68.09765625 C85.84047484 65.99671671 93.23304945 64.2682599 100.6875 62.625 C102.03742314 62.32485723 103.38727533 62.02439524 104.73706055 61.72363281 C107.48542209 61.11170558 110.23427685 60.5020572 112.98339844 59.89355469 C116.78646047 59.04997969 120.58493787 58.18696226 124.3828125 57.3203125 C143.16618547 53.04697108 160.67994401 49.38340247 180 50 C174.9833249 61.39465901 167.35773072 70.86293104 159 80 C159.99 79.67 160.98 79.34 162 79 C162.99 80.485 162.99 80.485 164 82 C173.72808167 70.12416004 183.08416268 57.74751195 188 43 C183.91050019 43.11964576 179.82116953 43.24395921 175.73193359 43.37231445 C174.34525251 43.41521641 172.9585336 43.45691549 171.57177734 43.49731445 C169.56075623 43.55612049 167.54991528 43.6193093 165.5390625 43.68359375 C164.24315186 43.72403809 162.94724121 43.76448242 161.61206055 43.80615234 C158.49207639 43.97359184 155.51658157 44.34022199 152.43359375 44.81640625 C148.71291813 45.22572704 148.04070134 45.02141698 144.49609375 43.15625 C143.4537097 42.2978549 142.43413692 41.41111003 141.4375 40.5 C140.62406128 39.81574951 140.62406128 39.81574951 139.79418945 39.11767578 C138.70125554 38.19821064 137.61662113 37.2687789 136.54101562 36.32910156 C134.32649415 34.41911188 132.01061051 32.65020709 129.6875 30.875 C128.45804313 29.91703899 127.22874903 28.95886875 126 28 C126.99 27.505 126.99 27.505 128 27 C130.99894702 28.45624135 133.86484736 30.10095504 136.76171875 31.75 C140.7927499 33.3060072 142.85077606 33.15307674 147 32 C149.24732761 30.53771672 151.2380001 29.1013186 153.3125 27.4375 C157.79912161 24.16740494 161.47469352 21.56907993 167.19921875 22.09375 C171.84789784 23.5979251 175.98425257 26.03601589 180.11645508 28.62060547 C184.69871217 31.47084611 188.69985387 32.92580557 194 34 C194.03738281 33.42894531 194.07476562 32.85789062 194.11328125 32.26953125 C194.70394296 24.9847035 196.27183182 18.08901642 198 11 C198.4008712 9.23030031 198.79741331 7.45960809 199.1875 5.6875 C199.455625 4.470625 199.72375 3.25375 200 2 C201.98 2 203.96 2 206 2 C205.38868261 36.06705089 187.82172383 66.75191843 165 91 C164.401875 91.66257812 163.80375 92.32515625 163.1875 93.0078125 C141.23921454 116.37516814 106.60937578 131.0266869 74.75634766 132.11035156 C71.06616697 132.17012388 67.37814803 132.18560249 63.6875 132.1875 C62.44548828 132.19974609 61.20347656 132.21199219 59.92382812 132.22460938 C27.1127696 132.27622614 -5.62675011 117.34930503 -28.8125 94.3125 C-29.87734539 93.21059503 -30.94011904 92.1066809 -32 91 C-32.78375 90.236875 -33.5675 89.47375 -34.375 88.6875 C-35.674375 87.3571875 -35.674375 87.3571875 -37 86 C-37.63421875 85.36191406 -38.2684375 84.72382813 -38.921875 84.06640625 C-48.44296169 74.05576014 -55.6785564 62.30398576 -61.625 49.875 C-61.9557251 49.18913818 -62.2864502 48.50327637 -62.62719727 47.79663086 C-64.59349103 43.50131873 -65.54786736 39.70462344 -66 35 C-64.93523437 34.46632813 -63.87046875 33.93265625 -62.7734375 33.3828125 C-51.24612388 27.50622143 -41.11924424 20.66742409 -30.85546875 12.83984375 C-30.15107666 12.30528564 -29.44668457 11.77072754 -28.72094727 11.2199707 C-27.36823942 10.19058918 -26.02065116 9.15442847 -24.67944336 8.11010742 C-17.07337298 2.29185159 -9.84707005 -2.08799129 0 0 Z " fill="#142538" transform="translate(190,267)"/>
<path d="M0 0 C8.14151874 3.70980534 14.81015706 9.33616619 21.54296875 15.140625 C26.61821291 19.42973707 32.04534147 23.26959069 37.41455078 27.17822266 C41.34612839 30.04058015 45.23807245 32.91445942 49 36 C40.61815754 40.72068724 32.26743975 45.20234723 23.1875 48.4375 C22.54433838 48.67162598 21.90117676 48.90575195 21.23852539 49.14697266 C-4.54274821 57.91435269 -30.66074381 53.07236793 -55 43 C-55 59.62465925 -33.45053267 79.53603246 -22.54296875 90.4609375 C-6.83952381 105.30498993 13.9269989 116.34175765 35 121 C36.15371094 121.29519531 37.30742187 121.59039062 38.49609375 121.89453125 C59.2397797 126.62176041 83.7743431 125.74188563 104 119 C105.79824219 118.40058594 105.79824219 118.40058594 107.6328125 117.7890625 C128.76724753 110.43795466 149.56571776 98.56164553 164.09765625 81.26171875 C165.46845825 79.63195621 166.8771507 78.03379847 168.30859375 76.45703125 C176.90833425 66.73033568 184.04653211 55.42423717 188 43 C183.91050019 43.11964576 179.82116953 43.24395921 175.73193359 43.37231445 C174.34525251 43.41521641 172.9585336 43.45691549 171.57177734 43.49731445 C169.56075623 43.55612049 167.54991528 43.6193093 165.5390625 43.68359375 C164.24315186 43.72403809 162.94724121 43.76448242 161.61206055 43.80615234 C158.49207639 43.97359184 155.51658157 44.34022199 152.43359375 44.81640625 C148.71291813 45.22572704 148.04070134 45.02141698 144.49609375 43.15625 C143.4537097 42.2978549 142.43413692 41.41111003 141.4375 40.5 C140.62406128 39.81574951 140.62406128 39.81574951 139.79418945 39.11767578 C138.70125554 38.19821064 137.61662113 37.2687789 136.54101562 36.32910156 C134.32649415 34.41911188 132.01061051 32.65020709 129.6875 30.875 C128.45804313 29.91703899 127.22874903 28.95886875 126 28 C126.99 27.505 126.99 27.505 128 27 C130.99894702 28.45624135 133.86484736 30.10095504 136.76171875 31.75 C140.7927499 33.3060072 142.85077606 33.15307674 147 32 C149.24732761 30.53771672 151.2380001 29.1013186 153.3125 27.4375 C157.79912161 24.16740494 161.47469352 21.56907993 167.19921875 22.09375 C171.84789784 23.5979251 175.98425257 26.03601589 180.11645508 28.62060547 C184.69871217 31.47084611 188.69985387 32.92580557 194 34 C194.03738281 33.42894531 194.07476562 32.85789062 194.11328125 32.26953125 C194.70394296 24.9847035 196.27183182 18.08901642 198 11 C198.4008712 9.23030031 198.79741331 7.45960809 199.1875 5.6875 C199.455625 4.470625 199.72375 3.25375 200 2 C201.98 2 203.96 2 206 2 C205.38868261 36.06705089 187.82172383 66.75191843 165 91 C164.401875 91.66257812 163.80375 92.32515625 163.1875 93.0078125 C141.23921454 116.37516814 106.60937578 131.0266869 74.75634766 132.11035156 C71.06616697 132.17012388 67.37814803 132.18560249 63.6875 132.1875 C62.44548828 132.19974609 61.20347656 132.21199219 59.92382812 132.22460938 C27.1127696 132.27622614 -5.62675011 117.34930503 -28.8125 94.3125 C-29.87734539 93.21059503 -30.94011904 92.1066809 -32 91 C-32.78375 90.236875 -33.5675 89.47375 -34.375 88.6875 C-35.674375 87.3571875 -35.674375 87.3571875 -37 86 C-37.63421875 85.36191406 -38.2684375 84.72382813 -38.921875 84.06640625 C-48.44296169 74.05576014 -55.6785564 62.30398576 -61.625 49.875 C-61.9557251 49.18913818 -62.2864502 48.50327637 -62.62719727 47.79663086 C-64.59349103 43.50131873 -65.54786736 39.70462344 -66 35 C-64.93523437 34.46632813 -63.87046875 33.93265625 -62.7734375 33.3828125 C-51.24612388 27.50622143 -41.11924424 20.66742409 -30.85546875 12.83984375 C-30.15107666 12.30528564 -29.44668457 11.77072754 -28.72094727 11.2199707 C-27.36823942 10.19058918 -26.02065116 9.15442847 -24.67944336 8.11010742 C-17.07337298 2.29185159 -9.84707005 -2.08799129 0 0 Z " fill="#F6F7F5" transform="translate(190,267)"/>
<path d="M0 0 C-6.78531031 15.4118606 -19.88131056 34.31874629 -36.10205078 40.86474609 C-36.83149902 41.13625488 -37.56094727 41.40776367 -38.3125 41.6875 C-39.08577637 41.98221191 -39.85905273 42.27692383 -40.65576172 42.58056641 C-48.26859004 45.3395058 -55.98479547 46.75909179 -64.0012207 47.75024414 C-65.86603046 47.98325994 -67.72454952 48.26517065 -69.58203125 48.55078125 C-92.2312337 51.31422713 -115.65150782 48.60331518 -138 45 C-138.99335358 44.84087128 -138.99335358 44.84087128 -140.0067749 44.67852783 C-165.07915571 40.65367369 -165.07915571 40.65367369 -175 38 C-175 37.34 -175 36.68 -175 36 C-173.48599609 35.79697266 -173.48599609 35.79697266 -171.94140625 35.58984375 C-161.88515451 34.13286377 -152.28449465 31.8083508 -142.53198242 28.97705078 C-131.37529028 25.75988072 -120.1220404 22.97535655 -108.85009766 20.19677734 C-107.38701091 19.83574714 -105.92395713 19.47458331 -104.4609375 19.11328125 C-103.74209885 18.93593445 -103.02326019 18.75858765 -102.28263855 18.5758667 C-97.70589077 17.44074815 -93.1493187 16.24446701 -88.59765625 15.01171875 C-27.99926994 -1.27269409 -27.99926994 -1.27269409 0 0 Z " fill="#F9F9F5" transform="translate(370,317)"/>
<path d="M0 0 C3.91732201 1.65188277 6.89071803 4.30438789 10.0625 7.0625 C11.23377534 8.06710582 12.40565891 9.0710029 13.578125 10.07421875 C14.15884766 10.57228027 14.73957031 11.0703418 15.33789062 11.58349609 C19.4978989 15.12879104 23.75853515 18.55312482 28 22 C29.32049434 23.07920463 30.64079353 24.15864807 31.9609375 25.23828125 C33.3697102 26.38812065 34.77856416 27.53786051 36.1875 28.6875 C37.16746948 29.48969971 37.16746948 29.48969971 38.16723633 30.30810547 C42.20448779 33.59628634 46.31208649 36.75069611 50.5246582 39.81176758 C51.011521 40.20388428 51.49838379 40.59600098 52 41 C52 41.33 52 41.66 52 42 C51.10732422 42.13986328 50.21464844 42.27972656 49.29492188 42.42382812 C15.14665801 47.84501754 -19.41207213 54.82548606 -51.51953125 68.015625 C-76.66823382 78.31488536 -95.4607689 78.26879541 -120.48193359 67.93115234 C-121.99091071 67.29439267 -123.49594471 66.6482997 -125 66 C-125 65.67 -125 65.34 -125 65 C-124.45400146 64.97607178 -123.90800293 64.95214355 -123.34545898 64.92749023 C-86.74655881 63.07529608 -53.46268642 46.86038764 -26 23 C-24.79598087 21.96827374 -23.5915235 20.93705875 -22.38671875 19.90625 C-14.8069189 13.39805059 -7.34862383 6.76806727 0 0 Z " fill="#F9F9F6" transform="translate(281,272)"/>
<path d="M0 0 C0.6882486 0.00376648 1.37649719 0.00753296 2.08560181 0.01141357 C32.57455686 0.20714229 61.20187692 7.55921435 85.9375 26.25 C86.80761719 26.8996875 87.67773438 27.549375 88.57421875 28.21875 C114.5237619 48.52379398 135.15538475 77.58829524 141.9375 110.25 C141.98029211 111.91611723 141.99130058 113.58420191 141.9375 115.25 C139.6275 115.25 137.3175 115.25 134.9375 115.25 C134.70417969 114.14527344 134.47085937 113.04054688 134.23046875 111.90234375 C126.52772327 78.12366926 105.29077152 46.997978 75.85253906 28.41943359 C54.17999218 15.18492319 30.89510748 7.62592187 5.40039062 7.85888672 C3.30533368 7.87505531 1.21218912 7.85887148 -0.8828125 7.83984375 C-9.91407239 7.8256422 -18.29695067 8.99260913 -27.0625 11.25 C-27.86349121 11.44335938 -28.66448242 11.63671875 -29.48974609 11.8359375 C-47.23084733 16.23298658 -67.12073167 25.06632946 -80.0625 38.25 C-80.7225 38.25 -81.3825 38.25 -82.0625 38.25 C-82.0625 38.91 -82.0625 39.57 -82.0625 40.25 C-83.4609375 41.58984375 -83.4609375 41.58984375 -85.4375 43.1875 C-104.29955769 59.359722 -121.7055221 86.16913061 -125.0625 111.25 C-127.3725 110.92 -129.6825 110.59 -132.0625 110.25 C-131.52936622 103.69245452 -129.83141974 98.1720639 -127.4375 92.0625 C-127.0770459 91.1355835 -126.7165918 90.20866699 -126.34521484 89.25366211 C-118.64704152 69.84580579 -106.98710933 53.78185645 -92.0625 39.25 C-91.62421875 38.76660156 -91.1859375 38.28320312 -90.734375 37.78515625 C-76.69828103 22.72116651 -57.3757636 12.65105316 -38.0625 6.25 C-36.89332031 5.85941406 -35.72414063 5.46882813 -34.51953125 5.06640625 C-22.8258181 1.32386969 -12.29704544 -0.10159336 0 0 Z " fill="#EEF1F2" transform="translate(252.0625,113.75)"/>
<path d="M0 0 C1.65625 0.93359375 1.65625 0.93359375 3.5 2.4375 C4.55574219 3.25734375 4.55574219 3.25734375 5.6328125 4.09375 C7.31252507 5.44638982 8.97214749 6.82414892 10.6171875 8.21875 C11.98230469 9.31703125 11.98230469 9.31703125 13.375 10.4375 C14.20773437 11.13746094 15.04046875 11.83742188 15.8984375 12.55859375 C19.74398588 14.34575666 21.8797158 13.94059338 25.98974609 13.35229492 C32.1621071 12.62993345 38.41687399 12.89837626 44.625 12.9375 C46.02473797 12.94252803 47.4244777 12.94708862 48.82421875 12.95117188 C52.21619169 12.96286833 55.60807233 12.97925914 59 13 C58.212448 18.67067694 56.39852457 22.62939713 53.625 27.5625 C53.18599365 28.34955322 52.7469873 29.13660645 52.29467773 29.94750977 C47.32561352 38.57568386 41.12866687 46.05954876 34 53 C33.34 52.01 32.68 51.02 32 50 C31.01 50 30.02 50 29 50 C29.53367187 49.45214844 30.06734375 48.90429688 30.6171875 48.33984375 C38.17136378 40.30209563 45.36569661 31.07897677 50 21 C5.63422133 18.14791423 -45.64575243 36.80757862 -88 49 C-91.22728415 49.92342337 -94.45691014 50.83821931 -97.6875 51.75 C-98.4192041 51.96108398 -99.1509082 52.17216797 -99.90478516 52.38964844 C-104.26401215 53.62013244 -108.50162135 54.45760048 -113 55 C-111.59338907 50.37084103 -111.59338907 50.37084103 -108.99829102 48.74902344 C-108.17514404 48.45543945 -107.35199707 48.16185547 -106.50390625 47.859375 C-105.56627441 47.51551758 -104.62864258 47.17166016 -103.66259766 46.81738281 C-102.63956543 46.46514648 -101.6165332 46.11291016 -100.5625 45.75 C-99.5007959 45.3694043 -98.4390918 44.98880859 -97.34521484 44.59667969 C-93.90470415 43.37376599 -90.45425423 42.183495 -87 41 C-85.84902832 40.60167969 -84.69805664 40.20335937 -83.51220703 39.79296875 C-51.86895768 28.87935825 -19.97592634 21.6245731 13 16 C7.39 11.71 1.78 7.42 -4 3 C-3 1 -3 1 0 0 Z " fill="#1B2B3D" transform="translate(319,297)"/>
<path d="M0 0 C2.64 0 5.28 0 8 0 C8.33 3.96 8.66 7.92 9 12 C9.99 11.34 10.98 10.68 12 10 C16.24230556 9.51973899 18.46261902 9.71064101 22.25 11.75 C25.75005516 14.61368149 27.57196733 16.71590198 29 21 C29.39614654 26.24894167 28.86557317 29.55342094 26 34 C20.42126197 39.03447091 20.42126197 39.03447091 16.90625 38.94921875 C16.1121875 38.86285156 15.318125 38.77648437 14.5 38.6875 C13.7059375 38.60886719 12.911875 38.53023438 12.09375 38.44921875 C10 38 10 38 8 36 C7.67 36.66 7.34 37.32 7 38 C4.69 38 2.38 38 0 38 C0 25.46 0 12.92 0 0 Z " fill="#ECEFF1" transform="translate(220,223)"/>
<path d="M0 0 C3.57448507 2.55966743 6.22190764 4.61637858 7.84765625 8.796875 C8.30754808 13.5490906 8.36844476 15.79387491 6.16015625 20.046875 C0.72110547 26.51493538 0.72110547 26.51493538 -3.9296875 27.21484375 C-12.91156832 27.62563434 -12.91156832 27.62563434 -16.77734375 24.609375 C-20.67938974 19.98853107 -21.73761383 16.07021637 -21.59765625 10.08203125 C-20.79157586 5.9455661 -18.36747408 3.38663673 -15.15234375 0.796875 C-10.30732701 -1.57409064 -4.91819949 -2.74919318 0 0 Z " fill="#EEF1F3" transform="translate(273.15234375,234.203125)"/>
<path d="M0 0 C4.78924463 2.15739805 7.64002373 4.41471287 9.90234375 9.31640625 C10.77771274 15.34672594 9.65614145 18.58675673 6.38671875 23.65234375 C3.90797097 26.43115047 1.76679702 27.20202873 -1.90234375 27.6875 C-11.21619248 27.88894457 -11.21619248 27.88894457 -14.72265625 25.12890625 C-18.52865138 20.62180675 -19.52217944 17.04117746 -19.34765625 11.23828125 C-18.79750777 7.00901479 -16.64216936 4.79451532 -13.53515625 2.06640625 C-9.12439968 -1.10029077 -5.32741423 -1.73612196 0 0 Z " fill="#EFF2F3" transform="translate(146.09765625,233.68359375)"/>
<path d="M0 0 C4.79765866 2.39882933 7.565249 5.22414226 10 10 C10 12.31 10 14.62 10 17 C3.4 17 -3.2 17 -10 17 C-8.35 18.65 -6.7 20.3 -5 22 C-1.42823885 21.91832511 -1.42823885 21.91832511 2 21 C3.32 21 4.64 21 6 21 C6.66 22.32 7.32 23.64 8 25 C2.59745094 28.50435614 -2.74553907 29.12399008 -9 28 C-12.81179053 25.96523637 -15.17198647 23.27652085 -17.5 19.6875 C-18.48166614 14.41104452 -18.05631197 9.73536966 -15.25 5.125 C-10.56164698 0.69711103 -6.54354999 -1.14415707 0 0 Z " fill="#EBEEF2" transform="translate(415,233)"/>
<path d="M0 0 C1.640625 0.984375 1.640625 0.984375 3.828125 3.234375 C3.828125 4.554375 3.828125 5.874375 3.828125 7.234375 C2.078125 8.359375 2.078125 8.359375 -0.171875 9.234375 C-0.77515625 8.93144531 -1.3784375 8.62851563 -2 8.31640625 C-5.8546924 6.39599295 -9.97948196 6.52982975 -14.171875 7.234375 C-17.29663863 10.13049739 -19.00305519 12.74876066 -19.484375 16.984375 C-19.09181128 21.06703769 -17.70288384 23.05253532 -15.171875 26.234375 C-11.89108951 28.42156533 -11.36597449 28.45229427 -7.671875 27.984375 C-6.8984375 27.89671875 -6.125 27.8090625 -5.328125 27.71875 C-2.8920308 27.30697997 -2.8920308 27.30697997 -0.171875 25.234375 C2.828125 25.234375 2.828125 25.234375 4.515625 26.734375 C4.94875 27.229375 5.381875 27.724375 5.828125 28.234375 C4.43169879 31.73279014 3.13806496 32.97635258 -0.296875 34.484375 C-5.53269732 36.59545856 -9.78904527 37.39084513 -15.30859375 35.50390625 C-20.56016407 33.12565352 -23.79175278 30.22547624 -26.24609375 24.90625 C-28.04495617 19.71459644 -28.22628236 14.06809478 -26.296875 8.8828125 C-20.79223339 -0.78652507 -10.49673864 -3.70028916 0 0 Z " fill="#EFF1F2" transform="translate(118.171875,225.765625)"/>
<path d="M0 0 C3.11771358 1.6937277 5.38989747 3.77979493 7 7 C7.08400529 8.59447464 7.10727467 10.19240545 7.09765625 11.7890625 C7.09443359 12.73007813 7.09121094 13.67109375 7.08789062 14.640625 C7.07951172 15.62546875 7.07113281 16.6103125 7.0625 17.625 C7.05798828 18.61757812 7.05347656 19.61015625 7.04882812 20.6328125 C7.03702145 23.0886016 7.020554 25.54427104 7 28 C4.69 28 2.38 28 0 28 C0 27.34 0 26.68 0 26 C-1.051875 26.7425 -1.051875 26.7425 -2.125 27.5 C-5.51524386 29.26882288 -7.22446543 29.53936208 -11 29 C-14.2104658 27.54620417 -16.38426763 26.48957478 -17.7734375 23.12890625 C-18.53572903 19.32464005 -18.24710673 17.45619705 -16.375 14 C-11.14624264 10.90147712 -5.93318371 11.60908746 0 12 C-0.76451995 9.98566881 -0.76451995 9.98566881 -2 8 C-6.28750852 6.94834697 -9.74378709 6.83921466 -14 8 C-14.66 6.35 -15.32 4.7 -16 3 C-10.81829295 -0.27265708 -5.98315164 -1.0666883 0 0 Z " fill="#EDF0F2" transform="translate(323,233)"/>
<path d="M0 0 C2.95600069 2.36480055 4.97798631 4.28475584 5.52807617 8.13183594 C5.51236572 8.99067383 5.49665527 9.84951172 5.48046875 10.734375 C5.47080078 11.66894531 5.46113281 12.60351562 5.45117188 13.56640625 C5.42603516 14.53449219 5.40089844 15.50257813 5.375 16.5 C5.35469727 17.97533203 5.35469727 17.97533203 5.33398438 19.48046875 C5.29868726 21.90420415 5.24938054 24.32682145 5.1875 26.75 C1.85416667 26.75 -1.47916667 26.75 -4.8125 26.75 C-5.58464844 26.79640625 -6.35679687 26.8428125 -7.15234375 26.890625 C-14.05759804 27.18137255 -14.05759804 27.18137255 -17.4375 25.25 C-19.32362608 21.82067986 -19.82685425 18.56874543 -18.8125 14.75 C-17.203125 12.515625 -17.203125 12.515625 -14.8125 10.75 C-11.578125 10.359375 -11.578125 10.359375 -8.0625 10.5 C-6.89203125 10.53609375 -5.7215625 10.5721875 -4.515625 10.609375 C-3.62359375 10.65578125 -2.7315625 10.7021875 -1.8125 10.75 C-2.4725 9.43 -3.1325 8.11 -3.8125 6.75 C-7.7725 6.75 -11.7325 6.75 -15.8125 6.75 C-16.4725 5.1 -17.1325 3.45 -17.8125 1.75 C-11.76152944 -1.27548528 -6.54432523 -2.90858899 0 0 Z " fill="#ECEFF1" transform="translate(207.8125,234.25)"/>
<path d="M0 0 C3.53214485 2.01836849 5.80160052 4.07796533 7 8 C7.86709334 14.61158673 7.86709334 14.61158673 5.7265625 18.0390625 C0.89595195 23.7651033 0.89595195 23.7651033 -3.20703125 24.2734375 C-10.28722953 24.54942724 -10.28722953 24.54942724 -14 21.6875 C-17.35963924 17.17298478 -18.4938902 14.82997192 -18.39453125 9.29296875 C-17.72761415 5.41692581 -15.8124343 3.67850886 -13 1 C-9.06008887 -0.96995556 -4.29492536 -0.45307739 0 0 Z " fill="#F78209" transform="translate(193,177)"/>
<path d="M0 0 C3.75212276 2.01502889 5.63644095 3.45466142 8 7 C8.66036734 11.03866761 8.89569891 15.18269353 7.0546875 18.91796875 C4.53357752 22.12881636 1.97776572 24.14762163 -2 25 C-7.44479342 25 -10.73015553 23.45191474 -14.609375 19.80859375 C-16.97969248 16.72584938 -17.4115424 13.8181989 -17 10 C-15.62405481 6.35374523 -14.08095666 3.43909069 -11 1 C-7.27599129 -0.24133624 -3.86824 -0.54111486 0 0 Z " fill="#F44318" transform="translate(260,144)"/>
<path d="M0 0 C3.20908916 2.17963877 6.24588698 4.49177396 8 8 C8.37838031 13.01353911 8.13135639 16.00482115 5 20 C1.95006992 23.41961857 -0.47612998 24.33695359 -4.9375 24.625 C-8.77968942 24.48163472 -10.79017032 23.87277585 -13.5625 21.1875 C-16.14042177 18.22982771 -16.9104116 15.66551384 -17.4375 11.75 C-16.85814466 6.78409705 -14.71851931 4.23238261 -11 1 C-6.99867364 -1.40392797 -4.54691286 -1.23306111 0 0 Z " fill="#F4BD12" transform="translate(335,189)"/>
<path d="M0 0 C4.51046726 0.63064284 8.56728374 1.78630286 12.875 3.25 C40.3239573 12.14325268 67.45532506 13.34163209 96 13 C91.41746654 16.05502231 86.32064493 16.77013523 81 18 C80.21496094 18.21011719 79.42992187 18.42023438 78.62109375 18.63671875 C53.33337664 24.83770677 28.08997418 15.71968087 6 4 C4.00271859 2.99458119 2.00367414 1.99261771 0 1 C0 0.67 0 0.34 0 0 Z " fill="#EBEEF0" transform="translate(193,366)"/>
<path d="M0 0 C2.64 0 5.28 0 8 0 C8.84378975 2.05824429 9.67463622 4.12179786 10.5 6.1875 C10.9640625 7.33605469 11.428125 8.48460937 11.90625 9.66796875 C12.90805652 12.71990077 13.23870804 14.83115072 13 18 C13.66 18 14.32 18 15 18 C15.16822266 16.71222656 15.16822266 16.71222656 15.33984375 15.3984375 C16.02648164 11.8636744 17.13294687 8.92396876 18.5625 5.625 C19.01753906 4.56539062 19.47257812 3.50578125 19.94140625 2.4140625 C20.29074219 1.61742187 20.64007813 0.82078125 21 0 C23.31 0 25.62 0 28 0 C25.58650007 9.35518546 21.75743534 18.126276 18 27 C15.36 27 12.72 27 10 27 C8.32776718 22.87723451 6.66315937 18.75143325 5 14.625 C4.28457031 12.8615625 4.28457031 12.8615625 3.5546875 11.0625 C3.10351562 9.94101563 2.65234375 8.81953125 2.1875 7.6640625 C1.76855469 6.62717285 1.34960938 5.5902832 0.91796875 4.52197266 C0 2 0 2 0 0 Z " fill="#F0F3F5" transform="translate(368,234)"/>
<path d="M0 0 C2.31 0 4.62 0 7 0 C7 2.31 7 4.62 7 7 C8.98 7 10.96 7 13 7 C13 8.98 13 10.96 13 13 C11.02 13 9.04 13 7 13 C7.33 17.62 7.66 22.24 8 27 C9.98 27.33 11.96 27.66 14 28 C14.33 29.65 14.66 31.3 15 33 C12.29632431 34.83849947 10.83374606 34.99703118 7.5 34.9375 C3.18845613 33.78262218 2.29390464 32.77995591 0 29 C-0.46316777 26.20562592 -0.38115752 23.50990896 -0.25 20.6875 C-0.23195313 19.94693359 -0.21390625 19.20636719 -0.1953125 18.44335938 C-0.14847337 16.6283429 -0.07673789 14.81399834 0 13 C-1.32 13 -2.64 13 -4 13 C-4 11.02 -4 9.04 -4 7 C-2.68 7 -1.36 7 0 7 C0 4.69 0 2.38 0 0 Z " fill="#F0F2F5" transform="translate(338,227)"/>
<path d="M0 0 C2.64 0 5.28 0 8 0 C8.33 0.66 8.66 1.32 9 2 C9.99 1.34 10.98 0.68 12 0 C13.32 0 14.64 0 16 0 C16 2.64 16 5.28 16 8 C14.576875 8.4021875 14.576875 8.4021875 13.125 8.8125 C9.74732727 9.74986588 9.74732727 9.74986588 8 13 C7.70008931 15.58885171 7.49134775 18.09149082 7.375 20.6875 C7.33632813 21.38939453 7.29765625 22.09128906 7.2578125 22.81445312 C7.1637666 24.54254655 7.0808032 26.27123675 7 28 C4.69 28 2.38 28 0 28 C0 18.76 0 9.52 0 0 Z " fill="#E7EBED" transform="translate(286,233)"/>
<path d="M0 0 C2.31 0 4.62 0 7 0 C7 12.54 7 25.08 7 38 C4.69 38 2.38 38 0 38 C0 25.46 0 12.92 0 0 Z " fill="#F4F7F8" transform="translate(176,223)"/>
<path d="M0 0 C2.31 0 4.62 0 7 0 C7 12.54 7 25.08 7 38 C4.69 38 2.38 38 0 38 C0 25.46 0 12.92 0 0 Z " fill="#F3F5F7" transform="translate(161,223)"/>
<path d="M0 0 C1.625 1.375 1.625 1.375 3 3 C5.09989652 4.17574711 5.09989652 4.17574711 7 5 C6.4409112 8.24271506 5.5867822 9.93057424 3 12 C2.34 12 1.68 12 1 12 C0.67 12.99 0.34 13.98 0 15 C0.66 15.66 1.32 16.32 2 17 C-1.73577576 17.35578817 -3.86135578 17.06278229 -7.3125 15.5 C-10.40254664 12.62553801 -11.08111767 11.09516239 -11.296875 6.97265625 C-11 5 -11 5 -8.9375 2 C-5.5427033 -0.31135095 -4.01934638 -0.69901676 0 0 Z " fill="#ECEFF2" transform="translate(316,245)"/>
<path d="M0 0 C2.31 0 4.62 0 7 0 C7 9.24 7 18.48 7 28 C4.69 28 2.38 28 0 28 C0 18.76 0 9.52 0 0 Z " fill="#E9ECEF" transform="translate(358,233)"/>
<path d="M0 0 C2.55078958 2.22165544 2.93332671 3.60829443 3.5 6.9375 C3 10 3 10 0.9375 12.9375 C-2 15 -2 15 -5.625 15 C-10.61768902 13.52068474 -10.61768902 13.52068474 -12 11 C-12.39309578 7.90437069 -12.62338668 5.95663395 -12 3 C-8.38525112 -1.49105164 -5.37641793 -1.59301272 0 0 Z " fill="#55FDFB" transform="translate(303,161)"/>
<path d="M0 0 C2.31 0 4.62 0 7 0 C7.67590188 3.37321776 8.33905518 6.74882242 9 10.125 C9.19078125 11.07632812 9.3815625 12.02765625 9.578125 13.0078125 C11.37418723 22.24470396 11.37418723 22.24470396 11 27 C10 28 10 28 7.4375 28.0625 C6.633125 28.041875 5.82875 28.02125 5 28 C4.16011547 24.08470852 3.32923187 20.16756028 2.5 16.25 C2.26152344 15.13882812 2.02304688 14.02765625 1.77734375 12.8828125 C1.55175781 11.81289063 1.32617188 10.74296875 1.09375 9.640625 C0.88427734 8.65610352 0.67480469 7.67158203 0.45898438 6.65722656 C0 4 0 4 0 0 Z " fill="#EBEFF0" transform="translate(116,268)"/>
<path d="M0 0 C3.37223771 0.7782087 4.4947794 1.68439541 6.4375 4.5625 C7.26250224 8.62917773 7.08883288 11.56044942 4.8125 15.0625 C1.69423949 17.03192769 0.06029473 17.24177401 -3.5625 16.5625 C-6.42062053 14.00523427 -7.41817742 12.33222041 -8.125 8.5625 C-7.24128756 3.84936699 -4.74176112 1.04087439 0 0 Z " fill="#102234" transform="translate(141.5625,238.4375)"/>
<path d="M0 0 C1.9375 1 1.9375 1 3 3 C3.3886759 7.08109691 3.53330773 9.74515828 1.9375 13.5 C0 15 0 15 -3.4375 15.5625 C-7 15 -7 15 -9.4375 12.875 C-11.26836859 9.50620179 -11.64250722 7.77472994 -11 4 C-8.05323917 -0.47907646 -5.13567732 -0.65363166 0 0 Z " fill="#162739" transform="translate(238,240)"/>
<path d="M0 0 C1.9375 1 1.9375 1 3 3 C3.3886759 7.08109691 3.53330773 9.74515828 1.9375 13.5 C0 15 0 15 -3.4375 15.5625 C-7 15 -7 15 -9.4375 12.875 C-11.26836859 9.50620179 -11.64250722 7.77472994 -11 4 C-8.05323917 -0.47907646 -5.13567732 -0.65363166 0 0 Z " fill="#162638" transform="translate(270,240)"/>
<path d="M0 0 C2.3125 1.5625 2.3125 1.5625 4 4 C4.5625 7.5 4.5625 7.5 4 11 C1.875 13.5 1.875 13.5 -1 15 C-4.50732933 15 -6.2434698 14.6345092 -8.9375 12.375 C-10.49800943 8.88680246 -9.99154664 6.63567102 -9 3 C-6.29775749 0.00823151 -3.96034806 -0.69306091 0 0 Z " fill="#CAAF35" transform="translate(218,155)"/>
<path d="M0 0 C3.125 0.25 3.125 0.25 5 1.4375 C6.53159584 3.90507108 6.55322025 5.39519831 6.125 8.25 C5 10.0625 5 10.0625 3.125 11.25 C0.0625 11.625 0.0625 11.625 -2.875 11.25 C-4.875 8.25 -4.875 8.25 -4.5625 4.625 C-3.68565574 0.3204918 -3.68565574 0.3204918 0 0 Z " fill="#EC4F22" transform="translate(297.875,185.75)"/>
<path d="M0 0 C3.53214485 2.01836849 5.80160052 4.07796533 7 8 C7.86450651 14.5918621 7.86450651 14.5918621 5.7265625 18.07421875 C4.2312711 19.87221548 2.80078227 21.50712351 1 23 C0.34 23 -0.32 23 -1 23 C-1 22.01 -1 21.02 -1 20 C0.32 19.34 1.64 18.68 3 18 C3.05429959 16.25034642 3.09292823 14.50020213 3.125 12.75 C3.14820313 11.77546875 3.17140625 10.8009375 3.1953125 9.796875 C2.99862781 6.9803502 2.44568916 5.39050964 1 3 C-0.74965358 2.94570041 -2.49979787 2.90707177 -4.25 2.875 C-5.22453125 2.85179687 -6.1990625 2.82859375 -7.203125 2.8046875 C-10.05069951 3.00354047 -11.63037132 3.44561054 -14 5 C-14.33 5.66 -14.66 6.32 -15 7 C-15.66 6.67 -16.32 6.34 -17 6 C-11.94794165 -0.56767586 -8.12843531 -0.85747945 0 0 Z " fill="#D98223" transform="translate(193,177)"/>
<path d="M0 0 C2.55078958 2.22165544 2.93332671 3.60829443 3.5 6.9375 C3 10 3 10 0.9375 12.9375 C-2 15 -2 15 -5.625 15 C-10.61768902 13.52068474 -10.61768902 13.52068474 -12 11 C-12.39309578 7.90437069 -12.62338668 5.95663395 -12 3 C-8.38525112 -1.49105164 -5.37641793 -1.59301272 0 0 Z M-10 2 C-10.020625 3.27875 -10.04125 4.5575 -10.0625 5.875 C-10.07410156 6.59429687 -10.08570313 7.31359375 -10.09765625 8.0546875 C-10.12649242 10.08185404 -10.12649242 10.08185404 -9 12 C-7.72125 12.020625 -6.4425 12.04125 -5.125 12.0625 C-4.40570313 12.07410156 -3.68640625 12.08570313 -2.9453125 12.09765625 C-0.91814596 12.12649242 -0.91814596 12.12649242 1 11 C1 8.36 1 5.72 1 3 C0.34 3 -0.32 3 -1 3 C-1 2.34 -1 1.68 -1 1 C-5.65052872 0.73067479 -5.65052872 0.73067479 -10 2 Z " fill="#68E6EA" transform="translate(303,161)"/>
<path d="M0 0 C0.95024979 3.69541586 0.95024979 6.30458414 0 10 C-2.64 10 -5.28 10 -8 10 C-8.25 6.6875 -8.25 6.6875 -8 3 C-5.25765504 -0.03616763 -4.20797179 0 0 0 Z " fill="#FDCA04" transform="translate(219,157)"/>
<path d="M0 0 C5.94 0 11.88 0 18 0 C17.01 0.33 16.02 0.66 15 1 C15 1.66 15 2.32 15 3 C11.93315682 5.50923533 10.37818085 6.01304072 6.375 5.875 C3.16458195 5.04266939 1.83408488 4.69718364 0 2 C0 1.34 0 0.68 0 0 Z " fill="#253040" transform="translate(405,250)"/>
<path d="M0 0 C2 2 2 2 2 5 C-2.62 5.33 -7.24 5.66 -12 6 C-12 4.35 -12 2.7 -12 1 C-7.68024478 -1.22532845 -4.70081591 -1.06433568 0 0 Z " fill="#2D3C49" transform="translate(321,240)"/>
<path d="M0 0 C1.2375 0.1546875 1.2375 0.1546875 2.5 0.3125 C4.5 3.3125 4.5 3.3125 4.25 5.375 C3.5 7.3125 3.5 7.3125 1.5 9.3125 C-3.05555556 8.75694444 -3.05555556 8.75694444 -4.5 7.3125 C-4.6875 4.875 -4.6875 4.875 -4.5 2.3125 C-2.5 0.3125 -2.5 0.3125 0 0 Z " fill="#E3E8E9" transform="translate(361.5,220.6875)"/>
<path d="M0 0 C3.5 1.8125 3.5 1.8125 6 4 C6 4.99 6 5.98 6 7 C5.61585938 6.52304688 5.23171875 6.04609375 4.8359375 5.5546875 C1.30997721 2.56887432 -3.54517545 2.87625487 -8 3 C-11.16837867 4.33071904 -12.47728891 4.95457782 -14 8 C-14.07033769 9.87379605 -14.0843022 11.75001102 -14.0625 13.625 C-14.05347656 14.62789062 -14.04445312 15.63078125 -14.03515625 16.6640625 C-14.02355469 17.43492187 -14.01195312 18.20578125 -14 19 C-14.66 18.67 -15.32 18.34 -16 18 C-17.00165978 13.45400562 -17.40301667 11.06799418 -15.75 6.6875 C-11.7313523 0.51600532 -7.41668523 -1.03358702 0 0 Z " fill="#C34A30" transform="translate(260,144)"/>
<path d="M0 0 C1 3 1 3 0 6 C-0.0825 6.78375 -0.165 7.5675 -0.25 8.375 C-1.2638969 11.92363915 -3.29616718 13.57348337 -6 16 C-6.66 15.01 -7.32 14.02 -8 13 C-8.99 13 -9.98 13 -11 13 C-10.06027344 11.96939453 -10.06027344 11.96939453 -9.1015625 10.91796875 C-8.28429687 10.01691406 -7.46703125 9.11585938 -6.625 8.1875 C-5.81289063 7.29417969 -5.00078125 6.40085937 -4.1640625 5.48046875 C-1.90927093 3.00367326 -1.90927093 3.00367326 0 0 Z " fill="#2D3846" transform="translate(359,334)"/>
<path d="M0 0 C2.05078125 0.03255208 4.1015625 0.06510417 6.15234375 0.09765625 C6.83984375 1.91015625 6.83984375 1.91015625 7.15234375 4.09765625 C6.08984375 5.84765625 6.08984375 5.84765625 4.15234375 7.09765625 C1.08984375 7.41015625 1.08984375 7.41015625 -1.84765625 7.09765625 C-2.50765625 6.43765625 -3.16765625 5.77765625 -3.84765625 5.09765625 C-3.1001104 0.16385362 -3.1001104 0.16385362 0 0 Z " fill="#2A3541" transform="translate(315.84765625,248.90234375)"/>
<path d="M0 0 C-0.75 4.75 -0.75 4.75 -3 7 C-6.125 7.125 -6.125 7.125 -9 7 C-9.66 5.68 -10.32 4.36 -11 3 C-8.21756596 -1.17365106 -4.53441502 -0.22300402 0 0 Z " fill="#172534" transform="translate(206,249)"/>
<path d="M0 0 C1.17369141 0.05994141 1.17369141 0.05994141 2.37109375 0.12109375 C3.15613281 0.14300781 3.94117188 0.16492188 4.75 0.1875 C6.80859375 0.55859375 6.80859375 0.55859375 8.80859375 2.55859375 C8.80859375 3.54859375 8.80859375 4.53859375 8.80859375 5.55859375 C4.18859375 5.55859375 -0.43140625 5.55859375 -5.19140625 5.55859375 C-2.19140625 0.55859375 -2.19140625 0.55859375 0 0 Z " fill="#0A1929" transform="translate(197.19140625,239.44140625)"/>
<path d="M0 0 C0.99 0.66 1.98 1.32 3 2 C3 3.32 3 4.64 3 6 C-0.96 6 -4.92 6 -9 6 C-6.63624291 0.09060727 -5.98524974 -0.4379451 0 0 Z " fill="#202D39" transform="translate(414,239)"/>
<path d="M0 0 C0.66 0.66 1.32 1.32 2 2 C2.99 2.33 3.98 2.66 5 3 C3.4050992 4.19991599 1.79873853 5.38461318 0.1875 6.5625 C-0.70582031 7.22378906 -1.59914062 7.88507813 -2.51953125 8.56640625 C-3.33808594 9.03949219 -4.15664062 9.51257813 -5 10 C-5.99 9.67 -6.98 9.34 -8 9 C-8.33 7.68 -8.66 6.36 -9 5 C-6.03 3.35 -3.06 1.7 0 0 Z " fill="#21313F" transform="translate(239,302)"/>
<path d="M0 0 C0 0.66 0 1.32 0 2 C0.99 2 1.98 2 3 2 C2.67 2.99 2.34 3.98 2 5 C0.9790625 4.2265625 0.9790625 4.2265625 -0.0625 3.4375 C-3.9558919 1.53222311 -5.85209218 1.835675 -10 3 C-13.59147197 5.16843591 -15.42902492 6.36903291 -16.81640625 10.33203125 C-17.31656725 12.55302588 -17.71469033 14.74211829 -18 17 C-18.33 17 -18.66 17 -19 17 C-19.0270043 15.54176788 -19.04639787 14.08339325 -19.0625 12.625 C-19.07410156 11.81289062 -19.08570313 11.00078125 -19.09765625 10.1640625 C-19 8 -19 8 -18 6 C-17.34 6 -16.68 6 -16 6 C-16 5.01 -16 4.02 -16 3 C-11.48267456 -1.20578575 -5.75838972 -0.27228813 0 0 Z " fill="#27280C" transform="translate(336,187)"/>
<path d="M0 0 C2.3684401 1.441221 3.34368027 2.71542106 5 5 C4.195625 4.67 3.39125 4.34 2.5625 4 C-2.3218547 2.62895307 -7.40215856 1.9535197 -12.2109375 3.890625 C-14.15982255 4.88258861 -14.15982255 4.88258861 -15 7 C-15.66 6.67 -16.32 6.34 -17 6 C-12.02786399 -0.46377682 -8.06070527 -1.09179581 0 0 Z " fill="#D2802B" transform="translate(193,177)"/>
<path d="M0 0 C0.61875 0.66 1.2375 1.32 1.875 2 C6.23413237 4.78984472 9.94786424 4.72055051 15 4 C18.03465702 2.68772566 18.03465702 2.68772566 20 1 C19.34 2.32 18.68 3.64 18 5 C17.34 5 16.68 5 16 5 C16 5.66 16 6.32 16 7 C14.08458862 7.10841951 12.16740227 7.18578079 10.25 7.25 C8.64898437 7.31960937 8.64898437 7.31960937 7.015625 7.390625 C4 7 4 7 1.609375 5.171875 C0 3 0 3 0 0 Z " fill="#31300C" transform="translate(320,208)"/>
<path d="M0 0 C0.66 0 1.32 0 2 0 C2.19795384 3.43119989 2.30611966 6.20408888 1.0625 9.4375 C-1.83209072 11.63037176 -4.19643257 11.39599945 -7.74609375 11.3359375 C-10.17610344 10.97375235 -11.87602279 10.20955422 -14 9 C-13.67 7.68 -13.34 6.36 -13 5 C-12.46375 5.680625 -11.9275 6.36125 -11.375 7.0625 C-9.10653521 9.34991329 -9.10653521 9.34991329 -5.875 8.875 C-2.90318627 8.21691176 -2.90318627 8.21691176 -1 6 C-0.60235737 4.01178687 -0.26224651 2.01055661 0 0 Z " fill="#292E0C" transform="translate(222,160)"/>
<path d="M0 0 C-0.33 0.66 -0.66 1.32 -1 2 C-1.66 2 -2.32 2 -3 2 C-2.67 2.99 -2.34 3.98 -2 5 C-6.02992782 4.44687265 -10.02022924 3.8441938 -14 3 C-14 2.34 -14 1.68 -14 1 C-9.27616037 0.34843591 -4.78025483 -0.11950637 0 0 Z " fill="#D0D4DB" transform="translate(209,352)"/>
<path d="M0 0 C2.31 1.65 4.62 3.3 7 5 C6.67 5.66 6.34 6.32 6 7 C3.8125 7.3125 3.8125 7.3125 1 7 C-1.8125 4.5 -1.8125 4.5 -4 2 C-2.68 1.34 -1.36 0.68 0 0 Z " fill="#293746" transform="translate(319,297)"/>
<path d="M0 0 C2.3125 0.875 2.3125 0.875 4.3125 2.875 C3.9825 3.865 3.6525 4.855 3.3125 5.875 C2.6525 5.215 1.9925 4.555 1.3125 3.875 C-1.77097826 3.70818891 -1.77097826 3.70818891 -4.6875 3.875 C-4.9040625 5.545625 -4.9040625 5.545625 -5.125 7.25 C-5.6875 10.875 -5.6875 10.875 -6.6875 12.875 C-7.6875 11.875 -7.6875 11.875 -8.0625 8.0625 C-8.01930427 4.63152453 -7.85171994 4.06737193 -5.5 1.3125 C-2.6875 -0.125 -2.6875 -0.125 0 0 Z " fill="#4A211E" transform="translate(299.6875,183.125)"/>
<path d="M0 0 C0.66 0.33 1.32 0.66 2 1 C1.96519531 1.59167969 1.93039063 2.18335938 1.89453125 2.79296875 C1.68540003 8.89760859 2.42569056 12.23500097 6.6875 16.8125 C7.120625 17.204375 7.55375 17.59625 8 18 C4.80676321 17.76346394 3.69332005 16.72817004 1.25 14.5625 C-1.62091792 10.95183636 -1.44687891 7.53699957 -1.2734375 3.07421875 C-1 1 -1 1 0 0 Z " fill="#2C2114" transform="translate(174,183)"/>
<path d="M0 0 C2.28783297 0.91513319 3.73449728 1.65484646 5.25 3.625 C6.61398283 7.94427897 6.68728416 12.28178961 5 16.5 C4.67 16.995 4.34 17.49 4 18 C3.01 17.67 2.02 17.34 1 17 C1.66 16.01 2.32 15.02 3 14 C3.46706347 8.30182562 3.00943022 5.01571703 0 0 Z " fill="#2C1D0F" transform="translate(196,179)"/>
<path d="M0 0 C3.125 0.25 3.125 0.25 5 1.4375 C6.47281139 3.81036279 6.34723194 5.50913944 6.125 8.25 C5.135 8.745 5.135 8.745 4.125 9.25 C3.795 7.27 3.465 5.29 3.125 3.25 C0.18408413 3.43415432 0.18408413 3.43415432 -2.875 4.25 C-4.31137698 6.20163118 -4.31137698 6.20163118 -4.875 8.25 C-3.86780576 0.33633094 -3.86780576 0.33633094 0 0 Z " fill="#CD5835" transform="translate(297.875,185.75)"/>
<path d="M0 0 C0.66 1.32 1.32 2.64 2 4 C0.68 5.32 -0.64 6.64 -2 8 C-4.475 7.01 -4.475 7.01 -7 6 C-4.9859524 2.9789286 -3.36720387 1.39332574 0 0 Z " fill="#202D3B" transform="translate(351,346)"/>
<path d="M0 0 C0.66 0 1.32 0 2 0 C3.50662097 3.01324195 3.17770373 5.68286377 3 9 C1 11 1 11 -2.625 11.125 C-3.73875 11.08375 -4.8525 11.0425 -6 11 C-6 10.67 -6 10.34 -6 10 C-4.02 10 -2.04 10 0 10 C0 6.7 0 3.4 0 0 Z " fill="#EBC72B" transform="translate(219,157)"/>
<path d="M0 0 C2.64 0 5.28 0 8 0 C8 0.66 8 1.32 8 2 C9.32 2.66 10.64 3.32 12 4 C9.37165722 4 6.91813299 3.80210238 4.3125 3.5 C3.50425781 3.4071875 2.69601563 3.314375 1.86328125 3.21875 C1.24839844 3.1465625 0.63351563 3.074375 0 3 C0 2.01 0 1.02 0 0 Z " fill="#3B2918" transform="translate(184,174)"/>
<path d="M0 0 C0.61875 0.350625 1.2375 0.70125 1.875 1.0625 C6.37011449 2.41103435 10.40954987 1.65959866 15 1 C12.38523747 3.73361537 11.00448208 4.91265373 7.125 5.25 C3.69458046 4.97556644 2.40590072 4.40590072 0 2 C0 1.34 0 0.68 0 0 Z " fill="#35171D" transform="translate(248,166)"/>
<path d="M0 0 C0.33 0.66 0.66 1.32 1 2 C-1.65228812 3.07525194 -4.28368454 4.09456151 -7 5 C-7 6.98 -7 8.96 -7 11 C-7.33 11 -7.66 11 -8 11 C-8.125 4.375 -8.125 4.375 -7 1 C-4.53721199 -0.231394 -2.7204945 -0.07159196 0 0 Z " fill="#E4BF27" transform="translate(218,155)"/>
<path d="M0 0 C5.52706913 0.72724594 10.69960141 2.33445973 16 4 C15.01 4.33 14.02 4.66 13 5 C12.67 5.66 12.34 6.32 12 7 C8.04 5.02 4.08 3.04 0 1 C0 0.67 0 0.34 0 0 Z " fill="#C0CCD6" transform="translate(193,366)"/>
<path d="M0 0 C0.99 0.66 1.98 1.32 3 2 C3 2.99 3 3.98 3 5 C-0.63 5 -4.26 5 -8 5 C-6.68 4.34 -5.36 3.68 -4 3 C-2.64886795 2.02418241 -1.31053056 1.02970259 0 0 Z " fill="#424D5A" transform="translate(203,240)"/>
<path d="M0 0 C0.66 0.33 1.32 0.66 2 1 C0.61714856 2.49131037 -0.78185739 3.96765185 -2.1875 5.4375 C-2.96480469 6.26121094 -3.74210938 7.08492188 -4.54296875 7.93359375 C-7.1461801 10.12294002 -8.66227956 10.67393495 -12 11 C-8.19588166 7.08060535 -4.18423892 3.50897269 0 0 Z " fill="#E0E8EC" transform="translate(257,293)"/>
<path d="M0 0 C3.375 -0.125 3.375 -0.125 7 0 C7.66 0.66 8.32 1.32 9 2 C8.34 2.66 7.68 3.32 7 4 C3.875 3.625 3.875 3.625 1 3 C0.67 2.01 0.34 1.02 0 0 Z " fill="#F3F6F9" transform="translate(196,245)"/>
<path d="M0 0 C3 0 3 0 6 1 C5.01 2.32 4.02 3.64 3 5 C2.67 4.67 2.34 4.34 2 4 C1.01 5.485 1.01 5.485 0 7 C-0.66 7 -1.32 7 -2 7 C-1.34 4.69 -0.68 2.38 0 0 Z " fill="#253645" transform="translate(394,239)"/>
<path d="M0 0 C0.721875 0.103125 1.44375 0.20625 2.1875 0.3125 C1.589375 0.580625 0.99125 0.84875 0.375 1.125 C-3.2712987 3.10441929 -4.52948039 4.55281579 -6 8.5 C-6.268125 9.428125 -6.53625 10.35625 -6.8125 11.3125 C-7.1425 11.3125 -7.4725 11.3125 -7.8125 11.3125 C-8.28433746 7.25469787 -8.14579645 5.75054676 -5.625 2.4375 C-2.8125 0.3125 -2.8125 0.3125 0 0 Z " fill="#48535D" transform="translate(141.8125,238.6875)"/>
<path d="M0 0 C0.86625 0.3403125 0.86625 0.3403125 1.75 0.6875 C1.151875 0.955625 0.55375 1.22375 -0.0625 1.5 C-3.79027009 3.52364662 -5.52817426 5.84650412 -7.25 9.6875 C-6.76454933 3.25527857 -6.76454933 3.25527857 -4.4375 0.6875 C-2.25 -0.3125 -2.25 -0.3125 0 0 Z " fill="#CCD3DA" transform="translate(312.25,245.3125)"/>
<path d="M0 0 C1.98 0.495 1.98 0.495 4 1 C2.70700306 3.88437779 1.34058637 5.87219421 -1 8 C-0.67 5.36 -0.34 2.72 0 0 Z " fill="#273444" transform="translate(363,331)"/>
<path d="M0 0 C3.91211733 1.15585285 6.8745041 2.35534962 10 5 C8.375 5.8125 8.375 5.8125 6 6 C3.70232365 4.54854104 1.98596134 2.89569037 0 1 C0 0.67 0 0.34 0 0 Z " fill="#D8E1E9" transform="translate(316,294)"/>
<path d="M0 0 C0 0.33 0 0.66 0 1 C-1.7015625 1.433125 -1.7015625 1.433125 -3.4375 1.875 C-4.613125 2.24625 -5.78875 2.6175 -7 3 C-7.33 3.66 -7.66 4.32 -8 5 C-8.99 5 -9.98 5 -11 5 C-10.625 3.0625 -10.625 3.0625 -10 1 C-6.78548731 -0.60725635 -3.56387464 -0.05748185 0 0 Z " fill="#424D58" transform="translate(206,249)"/>
<path d="M0 0 C0.66 0.33 1.32 0.66 2 1 C-0.64 3.64 -3.28 6.28 -6 9 C-6.66 8.34 -7.32 7.68 -8 7 C-5.36 4.69 -2.72 2.38 0 0 Z " fill="#DFE5EC" transform="translate(345,357)"/>
<path d="M0 0 C0.66 0.33 1.32 0.66 2 1 C-0.45699392 3.63249349 -2.56568654 5.78137264 -6 7 C-6.99 6.67 -7.98 6.34 -9 6 C-6.03 4.02 -3.06 2.04 0 0 Z " fill="#DBE0E5" transform="translate(238,308)"/>
<path d="M0 0 C2.475 0.495 2.475 0.495 5 1 C4.814375 1.556875 4.62875 2.11375 4.4375 2.6875 C3.92448835 5.399133 4.3359276 7.34371039 5 10 C2.35534962 6.8745041 1.15585285 3.91211733 0 0 Z " fill="#303944" transform="translate(133,309)"/>
<path d="M0 0 C1.65 0 3.3 0 5 0 C5.33 0.66 5.66 1.32 6 2 C8.02463255 2.65213292 8.02463255 2.65213292 10 3 C8.35 3.66 6.7 4.32 5 5 C3.33333333 3.33333333 1.66666667 1.66666667 0 0 Z " fill="#283646" transform="translate(121,296)"/>
<path d="M0 0 C0.33 0 0.66 0 1 0 C1.28571429 8.57142857 1.28571429 8.57142857 -1 12 C-1.99 11.67 -2.98 11.34 -4 11 C-3.2884375 10.2265625 -3.2884375 10.2265625 -2.5625 9.4375 C-0.57190593 6.33217325 -0.34939182 3.63367496 0 0 Z " fill="#23211A" transform="translate(201,185)"/>
<path d="M0 0 C3.29714793 0.32971479 4.6226839 0.6226839 7 3 C6.67 3.99 6.34 4.98 6 6 C5.34 4.68 4.68 3.36 4 2 C2.02 2 0.04 2 -2 2 C-1.34 1.34 -0.68 0.68 0 0 Z " fill="#2F1D20" transform="translate(297,183)"/>
<path d="M0 0 C0.33 0.66 0.66 1.32 1 2 C-1.33623775 3.82518575 -3.08898065 5.01010373 -6.11328125 4.9765625 C-8.08537617 4.71735287 -10.04463697 4.36455921 -12 4 C-12 3.67 -12 3.34 -12 3 C-11.30132812 2.86722656 -10.60265625 2.73445313 -9.8828125 2.59765625 C-8.51769531 2.33275391 -8.51769531 2.33275391 -7.125 2.0625 C-6.22007812 1.88847656 -5.31515625 1.71445312 -4.3828125 1.53515625 C-2.00043683 1.10036299 -2.00043683 1.10036299 0 0 Z " fill="#4D5865" transform="translate(421,258)"/>
<path d="M0 0 C2.64 0 5.28 0 8 0 C7.67 0.99 7.34 1.98 7 3 C4.69 2.67 2.38 2.34 0 2 C0 1.34 0 0.68 0 0 Z " fill="#BBC5D1" transform="translate(195,353)"/>
<path d="M0 0 C0.66 0.33 1.32 0.66 2 1 C0.02 3.31 -1.96 5.62 -4 8 C-4.33 7.01 -4.66 6.02 -5 5 C-3.35 3.35 -1.7 1.7 0 0 Z " fill="#DEE4EA" transform="translate(133,235)"/>
</svg>
